<svg width="174" height="605" viewBox="0 0 174 605" fill="none" xmlns="http://www.w3.org/2000/svg">
<path d="M171.953 0V166.224" stroke="#E63B1D" stroke-width="4" stroke-miterlimit="10"/>
<path d="M171.953 342.537V508.761" stroke="#E63B1D" stroke-width="4" stroke-miterlimit="10"/>
<path d="M171.953 187.406V217.934" stroke="#E63B1D" stroke-width="4" stroke-miterlimit="10"/>
<path d="M171.953 239.117V269.645" stroke="#E63B1D" stroke-width="4" stroke-miterlimit="10"/>
<path d="M171.953 290.827V321.355" stroke="#E63B1D" stroke-width="4" stroke-miterlimit="10"/>
<path d="M171.953 529.944V605" stroke="#E63B1D" stroke-width="4" stroke-miterlimit="10"/>
<path d="M42.9883 605V438.775" stroke="#E63B1D" stroke-width="4" stroke-miterlimit="10"/>
<path d="M42.9883 262.462V96.2383" stroke="#E63B1D" stroke-width="4" stroke-miterlimit="10"/>
<path d="M42.9883 417.594V387.066" stroke="#E63B1D" stroke-width="4" stroke-miterlimit="10"/>
<path d="M42.9883 365.883V335.355" stroke="#E63B1D" stroke-width="4" stroke-miterlimit="10"/>
<path d="M42.9883 314.173V283.646" stroke="#E63B1D" stroke-width="4" stroke-miterlimit="10"/>
<path d="M42.9883 75.0556V0" stroke="#E63B1D" stroke-width="4" stroke-miterlimit="10"/>
<path d="M128.965 0V118.563" stroke="#E63B1D" stroke-width="4" stroke-miterlimit="10"/>
<path d="M128.965 440.126V487.576" stroke="#E63B1D" stroke-width="4" stroke-miterlimit="10"/>
<path d="M128.965 139.746V170.274" stroke="#E63B1D" stroke-width="4" stroke-miterlimit="10"/>
<path d="M128.965 191.456V221.984" stroke="#E63B1D" stroke-width="4" stroke-miterlimit="10"/>
<path d="M128.965 243.166V367.561" stroke="#E63B1D" stroke-width="4" stroke-miterlimit="10"/>
<path d="M128.965 388.744V419.272" stroke="#E63B1D" stroke-width="4" stroke-miterlimit="10"/>
<path d="M128.965 508.762V605" stroke="#E63B1D" stroke-width="4" stroke-miterlimit="10"/>
<path d="M0.000976562 160.118V0" stroke="#E63B1D" stroke-width="4" stroke-miterlimit="10"/>
<path d="M0 600.245V481.682" stroke="#E63B1D" stroke-width="4" stroke-miterlimit="10"/>
<path d="M0 460.499V429.972" stroke="#E63B1D" stroke-width="4" stroke-miterlimit="10"/>
<path d="M0 408.788L0.000976562 378.261" stroke="#E63B1D" stroke-width="4" stroke-miterlimit="10"/>
<path d="M0.000976562 357.078V232.683" stroke="#E63B1D" stroke-width="4" stroke-miterlimit="10"/>
<path d="M0.000976562 211.501V180.974" stroke="#E63B1D" stroke-width="4" stroke-miterlimit="10"/>
<path d="M85.9766 0V206.72" stroke="#E63B1D" stroke-width="4" stroke-miterlimit="10"/>
<path d="M85.9766 228.526V321.355" stroke="#E63B1D" stroke-width="4" stroke-miterlimit="10"/>
<path d="M85.9766 342.537V373.065" stroke="#E63B1D" stroke-width="4" stroke-miterlimit="10"/>
<path d="M85.9766 394.248V424.776" stroke="#E63B1D" stroke-width="4" stroke-miterlimit="10"/>
<path d="M85.9766 571.019V605" stroke="#E63B1D" stroke-width="4" stroke-miterlimit="10"/>
<path d="M85.9766 445.958V550.376" stroke="#E63B1D" stroke-width="4" stroke-miterlimit="10"/>
</svg>
